# This file uses centimeters as units for non-parametric coordinates.

mtllib object.mtl
g default
v -0.500000 -0.500000 0.500000
v 0.500000 -0.500000 0.500000
v -0.500000 0.500000 0.500000
v 0.500000 0.500000 0.500000
v -0.500000 0.500000 -0.500000
v 0.500000 0.500000 -0.500000
v -0.500000 -0.500000 -0.500000
v 0.500000 -0.500000 -0.500000
v -0.138211 0.931684 0.500000
v 0.861789 0.931684 0.500000
v 0.861789 0.931684 -0.500000
v -0.138211 0.931684 -0.500000
v -0.138211 1.076189 0.378042
v 0.861789 1.076189 0.378042
v 0.861789 1.076189 -0.621958
v -0.138211 1.076189 -0.621958
v -0.598649 1.177992 0.378042
v 0.401351 1.177992 0.378042
v 0.401351 1.177992 -0.621958
v -0.598649 1.177992 -0.621958
vt 0.375000 0.000000
vt 0.625000 0.000000
vt 0.375000 0.250000
vt 0.625000 0.250000
vt 0.375000 0.500000
vt 0.625000 0.500000
vt 0.375000 0.750000
vt 0.625000 0.750000
vt 0.375000 1.000000
vt 0.625000 1.000000
vt 0.875000 0.000000
vt 0.875000 0.250000
vt 0.125000 0.000000
vt 0.125000 0.250000
vt 0.375000 0.250000
vt 0.625000 0.250000
vt 0.625000 0.500000
vt 0.375000 0.500000
vt 0.375000 0.250000
vt 0.625000 0.250000
vt 0.625000 0.500000
vt 0.375000 0.500000
vt 0.375000 0.250000
vt 0.625000 0.250000
vt 0.625000 0.500000
vt 0.375000 0.500000
vn 0.000000 0.000000 1.000000
vn 0.000000 0.000000 1.000000
vn 0.000000 0.000000 1.000000
vn 0.000000 0.000000 1.000000
vn 0.000000 1.000000 0.000000
vn 0.069539 0.997579 0.000000
vn 0.069539 0.997579 0.000000
vn 0.000000 1.000000 0.000000
vn 0.000000 0.000000 -1.000000
vn 0.000000 0.000000 -1.000000
vn 0.000000 0.000000 -1.000000
vn 0.000000 0.000000 -1.000000
vn 0.000000 -1.000000 0.000000
vn 0.000000 -1.000000 0.000000
vn 0.000000 -1.000000 0.000000
vn 0.000000 -1.000000 0.000000
vn 1.000000 0.000000 0.000000
vn 1.000000 0.000000 0.000000
vn 1.000000 0.000000 0.000000
vn 1.000000 0.000000 0.000000
vn -1.000000 0.000000 0.000000
vn -1.000000 0.000000 0.000000
vn -1.000000 0.000000 0.000000
vn -1.000000 0.000000 0.000000
vn 0.000000 0.000000 1.000000
vn 0.000000 0.000000 1.000000
vn 0.766426 -0.642333 0.000000
vn 0.766426 -0.642333 0.000000
vn 0.766426 -0.642333 0.000000
vn 0.766426 -0.642333 0.000000
vn 0.000000 0.000000 -1.000000
vn 0.000000 0.000000 -1.000000
vn -0.766426 0.642333 0.000000
vn -0.766426 0.642333 0.000000
vn -0.766426 0.642333 0.000000
vn -0.766426 0.642333 0.000000
vn 0.000000 0.644970 0.764208
vn 0.000000 0.644970 0.764208
vn 0.000000 0.644970 0.764208
vn 0.000000 0.644970 0.764208
vn 1.000000 0.000000 0.000000
vn 1.000000 0.000000 0.000000
vn 1.000000 0.000000 0.000000
vn 1.000000 0.000000 0.000000
vn 0.000000 -0.644969 -0.764208
vn 0.000000 -0.644969 -0.764208
vn 0.000000 -0.644969 -0.764208
vn 0.000000 -0.644969 -0.764208
vn -1.000000 0.000000 0.000000
vn -1.000000 0.000000 0.000000
vn -1.000000 0.000000 0.000000
vn -1.000000 0.000000 0.000000
vn 0.000000 0.000000 1.000000
vn 0.000000 0.000000 1.000000
vn 0.000000 0.000000 1.000000
vn 0.000000 0.000000 1.000000
vn 0.215888 0.976418 0.000000
vn 0.215888 0.976418 0.000000
vn 0.000000 0.000000 -1.000000
vn 0.000000 0.000000 -1.000000
vn 0.000000 0.000000 -1.000000
vn 0.000000 0.000000 -1.000000
vn -0.215888 -0.976418 0.000000
vn -0.215888 -0.976418 0.000000
vn -0.215888 -0.976418 0.000000
vn -0.215888 -0.976418 0.000000
s 1
g pCube1
usemtl blinn1SG
f 1/1/1 2/2/2 4/4/3 3/3/4
s 2
f 17/23/5 18/24/6 19/25/7 20/26/8
s 3
f 5/5/9 6/6/10 8/8/11 7/7/12
s off
f 7/7/13 8/8/14 2/10/15 1/9/16
f 2/2/17 8/11/18 6/12/19 4/4/20
f 7/13/21 1/1/22 3/3/23 5/14/24
s 1
f 3/3/4 4/4/3 10/16/25 9/15/26
s off
f 4/4/27 6/6/28 11/17/29 10/16/30
s 3
f 6/6/10 5/5/9 12/18/31 11/17/32
s off
f 5/5/33 3/3/34 9/15/35 12/18/36
f 9/15/37 10/16/38 14/20/39 13/19/40
f 10/16/41 11/17/42 15/21/43 14/20/44
f 11/17/45 12/18/46 16/22/47 15/21/48
f 12/18/49 9/15/50 13/19/51 16/22/52
f 13/19/53 14/20/54 18/24/55 17/23/56
s 2
f 14/20/57 15/21/58 19/25/7 18/24/6
s off
f 15/21/59 16/22/60 20/26/61 19/25/62
f 16/22/63 13/19/64 17/23/65 20/26/66
